<svg width="145" height="72" viewBox="0 0 145 72" fill="none" xmlns="http://www.w3.org/2000/svg">
<path d="M27.1015 52.9661C19.1178 53.8915 18.6112 61.5998 13.6274 63.8137C8.64359 66.0276 1.33301 59.5736 1.33301 59.5736V70.8335H143.06V42.3341C138.606 44.5456 136.675 55.1311 130.213 58.0995C123.751 61.0679 126.047 44.2008 120.651 35.8527C115.256 27.5046 110.998 48.8594 104.407 47.425C97.816 45.9906 96.6404 54.9012 91.829 53.1852C87.0175 51.4692 84.1545 42.2145 78.6385 39.3852C73.1224 36.5558 71.0891 12.7356 65.7542 7.52815C60.4193 2.32072 58.2451 25.5915 52.87 26.6153C47.4948 27.639 44.5154 10.1559 39.9857 12.7356C35.4561 15.3152 35.0852 52.0406 27.1015 52.9661Z" fill="url(#paint0_linear_502_6168)"/>
<path d="M1.33301 59.5962C2.62839 60.6531 8.51135 65.9979 13.7858 63.6549C19.0603 61.3119 19.1993 52.9661 27.1015 52.9661C35.0038 52.9661 35.4561 15.3152 39.9858 12.7356C44.5154 10.1559 47.4949 27.639 52.87 26.6153C58.2452 25.5916 60.4194 2.32072 65.7542 7.52815C71.0891 12.7356 73.1224 36.5558 78.6385 39.3852C84.1546 42.2145 86.4848 51.25 91.2962 52.9661C96.1077 54.6821 96.5866 47.425 104.407 47.425C112.227 47.425 115.306 27.5883 120.701 35.9364C126.096 44.2845 123.713 61.1563 130.175 58.1879C136.638 55.2195 138.061 45.1067 143.06 42.458" stroke="#5DC264" stroke-width="2" stroke-linecap="round" stroke-linejoin="round"/>
<defs>
<linearGradient id="paint0_linear_502_6168" x1="72.1964" y1="6.76953" x2="72.1964" y2="70.8335" gradientUnits="userSpaceOnUse">
<stop stop-color="#F04438" stop-opacity="0.3"/>
<stop offset="0.0001" stop-color="#5DC264" stop-opacity="0.3"/>
<stop offset="1" stop-color="white" stop-opacity="0"/>
</linearGradient>
</defs>
</svg>
